<svg width="71" height="26" viewBox="0 0 71 26" fill="none" xmlns="http://www.w3.org/2000/svg">
<g clip-path="url(#clip0_33_283)">
<path d="M4.88148 25.3941V19.9948H9.41998V5.56554H6.61863L5.99263 10.8396H0.828125V0.479291H26.1499V10.8396H20.9854L20.3594 5.56554H17.558V19.9948H22.0965V25.3941H4.88148ZM39.4305 25.8479C37.4481 25.8479 35.8101 25.5871 34.5164 25.0654C33.2226 24.5333 32.1897 23.8238 31.4177 22.937L30.6195 25.3941H26.3158V17.0057H32.1532C32.3514 18.2159 32.9566 19.2123 33.9686 19.9948C34.9806 20.7669 36.2587 21.1529 37.8029 21.1529C38.648 21.1529 39.3 20.986 39.7591 20.6521C40.2182 20.3078 40.4477 19.8383 40.4477 19.2436C40.4477 18.5967 40.1921 18.1064 39.6809 17.7725C39.1696 17.4386 38.4915 17.1778 37.6464 16.99C36.8013 16.8022 35.8727 16.6196 34.8607 16.4423C33.8486 16.2649 32.8366 16.0197 31.8246 15.7067C30.8125 15.3937 29.884 14.9346 29.0389 14.3295C28.1938 13.7244 27.5156 12.9054 27.0044 11.8725C26.4931 10.8291 26.2375 9.49369 26.2375 7.86609C26.2375 6.29066 26.6131 4.91346 27.3643 3.73449C28.1259 2.55552 29.2162 1.63739 30.6352 0.980092C32.0541 0.322791 33.7547 -0.00585938 35.7371 -0.00585938C37.5107 -0.00585938 38.9923 0.249758 40.1817 0.760991C41.3711 1.27222 42.3414 1.99734 43.0926 2.93634L43.8907 0.479291H48.1945V8.55469H42.2318C41.9293 7.31313 41.3241 6.35848 40.4164 5.69074C39.5191 5.02301 38.4758 4.68914 37.2864 4.68914C36.4413 4.68914 35.7684 4.85086 35.2676 5.17429C34.7668 5.48729 34.5164 5.95158 34.5164 6.56714C34.5164 7.14098 34.772 7.57918 35.2832 7.88174C35.7944 8.18431 36.4726 8.42949 37.3177 8.61729C38.1628 8.80509 39.0914 8.99811 40.1034 9.19634C41.1154 9.39458 42.1275 9.66585 43.1395 10.0101C44.1516 10.3544 45.0801 10.8396 45.9252 11.4656C46.7703 12.0811 47.4485 12.9054 47.9597 13.9383C48.471 14.9712 48.7266 16.2805 48.7266 17.8664C48.7266 20.3495 47.9023 22.3006 46.2539 23.7195C44.6054 25.1384 42.3309 25.8479 39.4305 25.8479ZM49.1116 25.3941V19.9948H51.6156V5.87854H49.1116V0.479291H70.959V10.8396H65.7945L65.2467 5.80029H59.5658V10.0258H63.6348V15.3468H59.5658V19.9948H64.1043V25.3941H49.1116Z" fill="#1DCD9F"/>
</g>
<defs>
<clipPath id="clip0_33_283">
<rect width="71" height="26" fill="white"/>
</clipPath>
</defs>
</svg>
